# xmcd CD database file
#
# Track frame offsets:
#	150
#	15670
#	36302
#	55892
#	81975
#	93637
#	110012
#	123157
#	144927
#	157440
#	175937
#	191715
#	206712
#	226165
#
# Disc length: 3254 seconds
#
# Revision: 3
# Processed by: cddbd v1.5.1PL0 Copyright (c) Steve Scherf et al.
# Submitted via: CDex 1.50Beta6
#
DISCID=c60cb40e
DTITLE=Grup Gündogarken - Mest Of Gündogarken
DYEAR=1998
DGENRE=Other
TTITLE0=Yaz Bulutlar 
TTITLE1=Hayallerimi Birak
TTITLE2=Gibi Gibiyim
TTITLE3=Rüzgar
TTITLE4=Yol Aldim Sevdalardan
TTITLE5=Bir Yaz Daha
TTITLE6=Ankara'dan Abim Geldi
TTITLE7=Beni Aldatma
TTITLE8=Yildizlar da Isterim
TTITLE9=Sarmas Dolas
TTITLE10=Bahar Oldum
TTITLE11=Sen Benim Sarkilarimsin
TTITLE12=Amiral Batti
TTITLE13=Bodrum 1972
EXTD=YEAR: 1998
EXTT0=
EXTT1=
EXTT2=
EXTT3=
EXTT4=
EXTT5=
EXTT6=
EXTT7=
EXTT8=
EXTT9=
EXTT10=
EXTT11=
EXTT12=
EXTT13=
PLAYORDER=
